<svg aria-roledescription="er" role="graphics-document document" viewBox="0 0 663.2799682617188 681.046875" height="681.046875" xmlns="http://www.w3.org/2000/svg" width="663.2799682617188" id="tmpMermaidElement9154"><style>svg {background: white;}#tmpMermaidElement9154{font-family:"trebuchet ms",verdana,arial,sans-serif;font-size:16px;fill:#333;}#tmpMermaidElement9154 .error-icon{fill:#552222;}#tmpMermaidElement9154 .error-text{fill:#552222;stroke:#552222;}#tmpMermaidElement9154 .edge-thickness-normal{stroke-width:2px;}#tmpMermaidElement9154 .edge-thickness-thick{stroke-width:3.5px;}#tmpMermaidElement9154 .edge-pattern-solid{stroke-dasharray:0;}#tmpMermaidElement9154 .edge-pattern-dashed{stroke-dasharray:3;}#tmpMermaidElement9154 .edge-pattern-dotted{stroke-dasharray:2;}#tmpMermaidElement9154 .marker{fill:#333333;stroke:#333333;}#tmpMermaidElement9154 .marker.cross{stroke:#333333;}#tmpMermaidElement9154 svg{font-family:"trebuchet ms",verdana,arial,sans-serif;font-size:16px;}#tmpMermaidElement9154 .entityBox{fill:#ECECFF;stroke:#9370DB;}#tmpMermaidElement9154 .attributeBoxOdd{fill:#ffffff;stroke:#9370DB;}#tmpMermaidElement9154 .attributeBoxEven{fill:#f2f2f2;stroke:#9370DB;}#tmpMermaidElement9154 .relationshipLabelBox{fill:hsl(80, 100%, 96.2745098039%);opacity:0.7;background-color:hsl(80, 100%, 96.2745098039%);}#tmpMermaidElement9154 .relationshipLabelBox rect{opacity:0.5;}#tmpMermaidElement9154 .relationshipLine{stroke:#333333;}#tmpMermaidElement9154 .entityTitleText{text-anchor:middle;font-size:18px;fill:#333;}#tmpMermaidElement9154 #MD_PARENT_START{fill:#f5f5f5!important;stroke:#333333!important;stroke-width:1;}#tmpMermaidElement9154 #MD_PARENT_END{fill:#f5f5f5!important;stroke:#333333!important;stroke-width:1;}#tmpMermaidElement9154 :root{--mermaid-font-family:"trebuchet ms",verdana,arial,sans-serif;}</style><g></g><defs><marker orient="auto" markerHeight="240" markerWidth="190" refY="7" refX="0" id="MD_PARENT_START"><path d="M 18,7 L9,13 L1,7 L9,1 Z"></path></marker></defs><defs><marker orient="auto" markerHeight="28" markerWidth="20" refY="7" refX="19" id="MD_PARENT_END"><path d="M 18,7 L9,13 L1,7 L9,1 Z"></path></marker></defs><defs><marker orient="auto" markerHeight="18" markerWidth="18" refY="9" refX="0" id="ONLY_ONE_START"><path d="M9,0 L9,18 M15,0 L15,18" fill="none" stroke="gray"></path></marker></defs><defs><marker orient="auto" markerHeight="18" markerWidth="18" refY="9" refX="18" id="ONLY_ONE_END"><path d="M3,0 L3,18 M9,0 L9,18" fill="none" stroke="gray"></path></marker></defs><defs><marker orient="auto" markerHeight="18" markerWidth="30" refY="9" refX="0" id="ZERO_OR_ONE_START"><circle r="6" cy="9" cx="21" fill="white" stroke="gray"></circle><path d="M9,0 L9,18" fill="none" stroke="gray"></path></marker></defs><defs><marker orient="auto" markerHeight="18" markerWidth="30" refY="9" refX="30" id="ZERO_OR_ONE_END"><circle r="6" cy="9" cx="9" fill="white" stroke="gray"></circle><path d="M21,0 L21,18" fill="none" stroke="gray"></path></marker></defs><defs><marker orient="auto" markerHeight="36" markerWidth="45" refY="18" refX="18" id="ONE_OR_MORE_START"><path d="M0,18 Q 18,0 36,18 Q 18,36 0,18 M42,9 L42,27" fill="none" stroke="gray"></path></marker></defs><defs><marker orient="auto" markerHeight="36" markerWidth="45" refY="18" refX="27" id="ONE_OR_MORE_END"><path d="M3,9 L3,27 M9,18 Q27,0 45,18 Q27,36 9,18" fill="none" stroke="gray"></path></marker></defs><defs><marker orient="auto" markerHeight="36" markerWidth="57" refY="18" refX="18" id="ZERO_OR_MORE_START"><circle r="6" cy="18" cx="48" fill="white" stroke="gray"></circle><path d="M0,18 Q18,0 36,18 Q18,36 0,18" fill="none" stroke="gray"></path></marker></defs><defs><marker orient="auto" markerHeight="36" markerWidth="57" refY="18" refX="39" id="ZERO_OR_MORE_END"><circle r="6" cy="18" cx="9" fill="white" stroke="gray"></circle><path d="M21,18 Q39,0 57,18 Q39,36 21,18" fill="none" stroke="gray"></path></marker></defs><path style="stroke: gray; fill: none;" marker-start="url(#ONLY_ONE_START)" marker-end="url(#ZERO_OR_MORE_END)" d="M257.209,117.598L229.873,130.168C202.538,142.737,147.868,167.876,120.532,192.779C93.197,217.682,93.197,242.349,93.197,254.682L93.197,267.016" class="er relationshipLine"></path><path style="stroke: gray; fill: none;" marker-start="url(#ONLY_ONE_START)" marker-end="url(#ZERO_OR_MORE_END)" d="M93.197,366.031L93.197,378.365C93.197,390.698,93.197,415.365,100.778,436.031C108.359,456.698,123.522,473.365,131.103,481.698L138.684,490.031" class="er relationshipLine"></path><path style="stroke: gray; fill: none;" marker-start="url(#ONLY_ONE_START)" marker-end="url(#ZERO_OR_MORE_END)" d="M339.749,390.031L339.749,398.365C339.749,406.698,339.749,423.365,332.168,440.031C324.587,456.698,309.425,473.365,301.844,481.698L294.263,490.031" class="er relationshipLine"></path><path style="stroke: gray; fill: none;" marker-start="url(#ONE_OR_MORE_START)" marker-end="url(#ONLY_ONE_END)" d="M414.181,117.598L441.516,130.168C468.851,142.737,523.522,167.876,550.857,194.779C578.192,221.682,578.192,250.349,578.192,264.682L578.192,279.016" class="er relationshipLine"></path><g transform="translate(257.20860290527344,20 )" id="entity-Pelicula-f4afa0a0-0434-5faf-bdce-9e8d45a4bb8a"><rect height="123.015625" width="156.97216796875" y="0" x="0" class="er entityBox"></rect><text style="dominant-baseline: middle; text-anchor: middle; font-size: 12px;" transform="translate(78.486083984375,13.5078125)" y="0" x="0" id="text-entity-Pelicula-f4afa0a0-0434-5faf-bdce-9e8d45a4bb8a" class="er entityLabel">Pelicula</text><rect height="24" width="69.359375" y="27.015625" x="0" class="er attributeBoxOdd"></rect><text style="dominant-baseline: middle; font-size: 10.2px;" transform="translate(5,39.015625)" y="0" x="0" id="text-entity-Pelicula-f4afa0a0-0434-5faf-bdce-9e8d45a4bb8a-attr-1-type" class="er entityLabel">int</text><rect height="24" width="64.484375" y="27.015625" x="69.359375" class="er attributeBoxOdd"></rect><text style="dominant-baseline: middle; font-size: 10.2px;" transform="translate(74.359375,39.015625)" y="0" x="0" id="text-entity-Pelicula-f4afa0a0-0434-5faf-bdce-9e8d45a4bb8a-attr-1-name" class="er entityLabel">id</text><rect height="24" width="23.12841796875" y="27.015625" x="133.84375" class="er attributeBoxOdd"></rect><text style="dominant-baseline: middle; font-size: 10.2px;" transform="translate(138.84375,39.015625)" y="0" x="0" id="text-entity-Pelicula-f4afa0a0-0434-5faf-bdce-9e8d45a4bb8a-attr-1-key" class="er entityLabel">PK</text><rect height="24" width="69.359375" y="51.015625" x="0" class="er attributeBoxEven"></rect><text style="dominant-baseline: middle; font-size: 10.2px;" transform="translate(5,63.015625)" y="0" x="0" id="text-entity-Pelicula-f4afa0a0-0434-5faf-bdce-9e8d45a4bb8a-attr-2-type" class="er entityLabel">varchar(255)</text><rect height="24" width="64.484375" y="51.015625" x="69.359375" class="er attributeBoxEven"></rect><text style="dominant-baseline: middle; font-size: 10.2px;" transform="translate(74.359375,63.015625)" y="0" x="0" id="text-entity-Pelicula-f4afa0a0-0434-5faf-bdce-9e8d45a4bb8a-attr-2-name" class="er entityLabel">nombre</text><rect height="24" width="23.12841796875" y="51.015625" x="133.84375" class="er attributeBoxEven"></rect><text style="dominant-baseline: middle; font-size: 10.2px;" transform="translate(138.84375,63.015625)" y="0" x="0" id="text-entity-Pelicula-f4afa0a0-0434-5faf-bdce-9e8d45a4bb8a-attr-2-key" class="er entityLabel"></text><rect height="24" width="69.359375" y="75.015625" x="0" class="er attributeBoxOdd"></rect><text style="dominant-baseline: middle; font-size: 10.2px;" transform="translate(5,87.015625)" y="0" x="0" id="text-entity-Pelicula-f4afa0a0-0434-5faf-bdce-9e8d45a4bb8a-attr-3-type" class="er entityLabel">text</text><rect height="24" width="64.484375" y="75.015625" x="69.359375" class="er attributeBoxOdd"></rect><text style="dominant-baseline: middle; font-size: 10.2px;" transform="translate(74.359375,87.015625)" y="0" x="0" id="text-entity-Pelicula-f4afa0a0-0434-5faf-bdce-9e8d45a4bb8a-attr-3-name" class="er entityLabel">descripcion</text><rect height="24" width="23.12841796875" y="75.015625" x="133.84375" class="er attributeBoxOdd"></rect><text style="dominant-baseline: middle; font-size: 10.2px;" transform="translate(138.84375,87.015625)" y="0" x="0" id="text-entity-Pelicula-f4afa0a0-0434-5faf-bdce-9e8d45a4bb8a-attr-3-key" class="er entityLabel"></text><rect height="24" width="69.359375" y="99.015625" x="0" class="er attributeBoxEven"></rect><text style="dominant-baseline: middle; font-size: 10.2px;" transform="translate(5,111.015625)" y="0" x="0" id="text-entity-Pelicula-f4afa0a0-0434-5faf-bdce-9e8d45a4bb8a-attr-4-type" class="er entityLabel">varchar(50)</text><rect height="24" width="64.484375" y="99.015625" x="69.359375" class="er attributeBoxEven"></rect><text style="dominant-baseline: middle; font-size: 10.2px;" transform="translate(74.359375,111.015625)" y="0" x="0" id="text-entity-Pelicula-f4afa0a0-0434-5faf-bdce-9e8d45a4bb8a-attr-4-name" class="er entityLabel">genero</text><rect height="24" width="23.12841796875" y="99.015625" x="133.84375" class="er attributeBoxEven"></rect><text style="dominant-baseline: middle; font-size: 10.2px;" transform="translate(138.84375,111.015625)" y="0" x="0" id="text-entity-Pelicula-f4afa0a0-0434-5faf-bdce-9e8d45a4bb8a-attr-4-key" class="er entityLabel">FK</text></g><g transform="translate(20,267.015625 )" id="entity-Ejemplar-f0e48666-2552-5d90-8d25-961342fb573b"><rect height="99.015625" width="146.39404296875" y="0" x="0" class="er entityBox"></rect><text style="dominant-baseline: middle; text-anchor: middle; font-size: 12px;" transform="translate(73.197021484375,13.5078125)" y="0" x="0" id="text-entity-Ejemplar-f0e48666-2552-5d90-8d25-961342fb573b" class="er entityLabel">Ejemplar</text><rect height="24" width="63.53125" y="27.015625" x="0" class="er attributeBoxOdd"></rect><text style="dominant-baseline: middle; font-size: 10.2px;" transform="translate(5,39.015625)" y="0" x="0" id="text-entity-Ejemplar-f0e48666-2552-5d90-8d25-961342fb573b-attr-1-type" class="er entityLabel">varchar(50)</text><rect height="24" width="59.734375" y="27.015625" x="63.53125" class="er attributeBoxOdd"></rect><text style="dominant-baseline: middle; font-size: 10.2px;" transform="translate(68.53125,39.015625)" y="0" x="0" id="text-entity-Ejemplar-f0e48666-2552-5d90-8d25-961342fb573b-attr-1-name" class="er entityLabel">codigo</text><rect height="24" width="23.12841796875" y="27.015625" x="123.265625" class="er attributeBoxOdd"></rect><text style="dominant-baseline: middle; font-size: 10.2px;" transform="translate(128.265625,39.015625)" y="0" x="0" id="text-entity-Ejemplar-f0e48666-2552-5d90-8d25-961342fb573b-attr-1-key" class="er entityLabel">PK</text><rect height="24" width="63.53125" y="51.015625" x="0" class="er attributeBoxEven"></rect><text style="dominant-baseline: middle; font-size: 10.2px;" transform="translate(5,63.015625)" y="0" x="0" id="text-entity-Ejemplar-f0e48666-2552-5d90-8d25-961342fb573b-attr-2-type" class="er entityLabel">int</text><rect height="24" width="59.734375" y="51.015625" x="63.53125" class="er attributeBoxEven"></rect><text style="dominant-baseline: middle; font-size: 10.2px;" transform="translate(68.53125,63.015625)" y="0" x="0" id="text-entity-Ejemplar-f0e48666-2552-5d90-8d25-961342fb573b-attr-2-name" class="er entityLabel">pelicula_id</text><rect height="24" width="23.12841796875" y="51.015625" x="123.265625" class="er attributeBoxEven"></rect><text style="dominant-baseline: middle; font-size: 10.2px;" transform="translate(128.265625,63.015625)" y="0" x="0" id="text-entity-Ejemplar-f0e48666-2552-5d90-8d25-961342fb573b-attr-2-key" class="er entityLabel">FK</text><rect height="24" width="63.53125" y="75.015625" x="0" class="er attributeBoxOdd"></rect><text style="dominant-baseline: middle; font-size: 10.2px;" transform="translate(5,87.015625)" y="0" x="0" id="text-entity-Ejemplar-f0e48666-2552-5d90-8d25-961342fb573b-attr-3-type" class="er entityLabel">varchar(50)</text><rect height="24" width="59.734375" y="75.015625" x="63.53125" class="er attributeBoxOdd"></rect><text style="dominant-baseline: middle; font-size: 10.2px;" transform="translate(68.53125,87.015625)" y="0" x="0" id="text-entity-Ejemplar-f0e48666-2552-5d90-8d25-961342fb573b-attr-3-name" class="er entityLabel">estado</text><rect height="24" width="23.12841796875" y="75.015625" x="123.265625" class="er attributeBoxOdd"></rect><text style="dominant-baseline: middle; font-size: 10.2px;" transform="translate(128.265625,87.015625)" y="0" x="0" id="text-entity-Ejemplar-f0e48666-2552-5d90-8d25-961342fb573b-attr-3-key" class="er entityLabel"></text></g><g transform="translate(127.03398895263672,490.03125 )" id="entity-Alquiler-62754738-0a7e-530d-8c03-de4381736479"><rect height="171.015625" width="178.87841796875" y="0" x="0" class="er entityBox"></rect><text style="dominant-baseline: middle; text-anchor: middle; font-size: 12px;" transform="translate(89.439208984375,13.5078125)" y="0" x="0" id="text-entity-Alquiler-62754738-0a7e-530d-8c03-de4381736479" class="er entityLabel">Alquiler</text><rect height="24" width="63.53125" y="27.015625" x="0" class="er attributeBoxOdd"></rect><text style="dominant-baseline: middle; font-size: 10.2px;" transform="translate(5,39.015625)" y="0" x="0" id="text-entity-Alquiler-62754738-0a7e-530d-8c03-de4381736479-attr-1-type" class="er entityLabel">int</text><rect height="24" width="92.21875" y="27.015625" x="63.53125" class="er attributeBoxOdd"></rect><text style="dominant-baseline: middle; font-size: 10.2px;" transform="translate(68.53125,39.015625)" y="0" x="0" id="text-entity-Alquiler-62754738-0a7e-530d-8c03-de4381736479-attr-1-name" class="er entityLabel">id</text><rect height="24" width="23.12841796875" y="27.015625" x="155.75" class="er attributeBoxOdd"></rect><text style="dominant-baseline: middle; font-size: 10.2px;" transform="translate(160.75,39.015625)" y="0" x="0" id="text-entity-Alquiler-62754738-0a7e-530d-8c03-de4381736479-attr-1-key" class="er entityLabel">PK</text><rect height="24" width="63.53125" y="51.015625" x="0" class="er attributeBoxEven"></rect><text style="dominant-baseline: middle; font-size: 10.2px;" transform="translate(5,63.015625)" y="0" x="0" id="text-entity-Alquiler-62754738-0a7e-530d-8c03-de4381736479-attr-2-type" class="er entityLabel">int</text><rect height="24" width="92.21875" y="51.015625" x="63.53125" class="er attributeBoxEven"></rect><text style="dominant-baseline: middle; font-size: 10.2px;" transform="translate(68.53125,63.015625)" y="0" x="0" id="text-entity-Alquiler-62754738-0a7e-530d-8c03-de4381736479-attr-2-name" class="er entityLabel">cliente_id</text><rect height="24" width="23.12841796875" y="51.015625" x="155.75" class="er attributeBoxEven"></rect><text style="dominant-baseline: middle; font-size: 10.2px;" transform="translate(160.75,63.015625)" y="0" x="0" id="text-entity-Alquiler-62754738-0a7e-530d-8c03-de4381736479-attr-2-key" class="er entityLabel">FK</text><rect height="24" width="63.53125" y="75.015625" x="0" class="er attributeBoxOdd"></rect><text style="dominant-baseline: middle; font-size: 10.2px;" transform="translate(5,87.015625)" y="0" x="0" id="text-entity-Alquiler-62754738-0a7e-530d-8c03-de4381736479-attr-3-type" class="er entityLabel">varchar(50)</text><rect height="24" width="92.21875" y="75.015625" x="63.53125" class="er attributeBoxOdd"></rect><text style="dominant-baseline: middle; font-size: 10.2px;" transform="translate(68.53125,87.015625)" y="0" x="0" id="text-entity-Alquiler-62754738-0a7e-530d-8c03-de4381736479-attr-3-name" class="er entityLabel">ejemplar_codigo</text><rect height="24" width="23.12841796875" y="75.015625" x="155.75" class="er attributeBoxOdd"></rect><text style="dominant-baseline: middle; font-size: 10.2px;" transform="translate(160.75,87.015625)" y="0" x="0" id="text-entity-Alquiler-62754738-0a7e-530d-8c03-de4381736479-attr-3-key" class="er entityLabel">FK</text><rect height="24" width="63.53125" y="99.015625" x="0" class="er attributeBoxEven"></rect><text style="dominant-baseline: middle; font-size: 10.2px;" transform="translate(5,111.015625)" y="0" x="0" id="text-entity-Alquiler-62754738-0a7e-530d-8c03-de4381736479-attr-4-type" class="er entityLabel">timestamp</text><rect height="24" width="92.21875" y="99.015625" x="63.53125" class="er attributeBoxEven"></rect><text style="dominant-baseline: middle; font-size: 10.2px;" transform="translate(68.53125,111.015625)" y="0" x="0" id="text-entity-Alquiler-62754738-0a7e-530d-8c03-de4381736479-attr-4-name" class="er entityLabel">fecha_alquiler</text><rect height="24" width="23.12841796875" y="99.015625" x="155.75" class="er attributeBoxEven"></rect><text style="dominant-baseline: middle; font-size: 10.2px;" transform="translate(160.75,111.015625)" y="0" x="0" id="text-entity-Alquiler-62754738-0a7e-530d-8c03-de4381736479-attr-4-key" class="er entityLabel"></text><rect height="24" width="63.53125" y="123.015625" x="0" class="er attributeBoxOdd"></rect><text style="dominant-baseline: middle; font-size: 10.2px;" transform="translate(5,135.015625)" y="0" x="0" id="text-entity-Alquiler-62754738-0a7e-530d-8c03-de4381736479-attr-5-type" class="er entityLabel">timestamp</text><rect height="24" width="92.21875" y="123.015625" x="63.53125" class="er attributeBoxOdd"></rect><text style="dominant-baseline: middle; font-size: 10.2px;" transform="translate(68.53125,135.015625)" y="0" x="0" id="text-entity-Alquiler-62754738-0a7e-530d-8c03-de4381736479-attr-5-name" class="er entityLabel">fecha_devolucion</text><rect height="24" width="23.12841796875" y="123.015625" x="155.75" class="er attributeBoxOdd"></rect><text style="dominant-baseline: middle; font-size: 10.2px;" transform="translate(160.75,135.015625)" y="0" x="0" id="text-entity-Alquiler-62754738-0a7e-530d-8c03-de4381736479-attr-5-key" class="er entityLabel"></text><rect height="24" width="63.53125" y="147.015625" x="0" class="er attributeBoxEven"></rect><text style="dominant-baseline: middle; font-size: 10.2px;" transform="translate(5,159.015625)" y="0" x="0" id="text-entity-Alquiler-62754738-0a7e-530d-8c03-de4381736479-attr-6-type" class="er entityLabel">int</text><rect height="24" width="92.21875" y="147.015625" x="63.53125" class="er attributeBoxEven"></rect><text style="dominant-baseline: middle; font-size: 10.2px;" transform="translate(68.53125,159.015625)" y="0" x="0" id="text-entity-Alquiler-62754738-0a7e-530d-8c03-de4381736479-attr-6-name" class="er entityLabel">costo_alquiler</text><rect height="24" width="23.12841796875" y="147.015625" x="155.75" class="er attributeBoxEven"></rect><text style="dominant-baseline: middle; font-size: 10.2px;" transform="translate(160.75,159.015625)" y="0" x="0" id="text-entity-Alquiler-62754738-0a7e-530d-8c03-de4381736479-attr-6-key" class="er entityLabel"></text></g><g transform="translate(266.39404296875,243.015625 )" id="entity-Cliente-62dfbbba-61a0-5712-b194-5fd14f3a1db7"><rect height="147.015625" width="146.71066284179688" y="0" x="0" class="er entityBox"></rect><text style="dominant-baseline: middle; text-anchor: middle; font-size: 12px;" transform="translate(73.35533142089844,13.5078125)" y="0" x="0" id="text-entity-Cliente-62dfbbba-61a0-5712-b194-5fd14f3a1db7" class="er entityLabel">Cliente</text><rect height="24" width="69.359375" y="27.015625" x="0" class="er attributeBoxOdd"></rect><text style="dominant-baseline: middle; font-size: 10.2px;" transform="translate(5,39.015625)" y="0" x="0" id="text-entity-Cliente-62dfbbba-61a0-5712-b194-5fd14f3a1db7-attr-1-type" class="er entityLabel">int</text><rect height="24" width="52.924560546875" y="27.015625" x="69.359375" class="er attributeBoxOdd"></rect><text style="dominant-baseline: middle; font-size: 10.2px;" transform="translate(74.359375,39.015625)" y="0" x="0" id="text-entity-Cliente-62dfbbba-61a0-5712-b194-5fd14f3a1db7-attr-1-name" class="er entityLabel">id</text><rect height="24" width="24.426727294921875" y="27.015625" x="122.283935546875" class="er attributeBoxOdd"></rect><text style="dominant-baseline: middle; font-size: 10.2px;" transform="translate(127.283935546875,39.015625)" y="0" x="0" id="text-entity-Cliente-62dfbbba-61a0-5712-b194-5fd14f3a1db7-attr-1-key" class="er entityLabel">PK</text><rect height="24" width="69.359375" y="51.015625" x="0" class="er attributeBoxEven"></rect><text style="dominant-baseline: middle; font-size: 10.2px;" transform="translate(5,63.015625)" y="0" x="0" id="text-entity-Cliente-62dfbbba-61a0-5712-b194-5fd14f3a1db7-attr-2-type" class="er entityLabel">varchar(255)</text><rect height="24" width="52.924560546875" y="51.015625" x="69.359375" class="er attributeBoxEven"></rect><text style="dominant-baseline: middle; font-size: 10.2px;" transform="translate(74.359375,63.015625)" y="0" x="0" id="text-entity-Cliente-62dfbbba-61a0-5712-b194-5fd14f3a1db7-attr-2-name" class="er entityLabel">nombres</text><rect height="24" width="24.426727294921875" y="51.015625" x="122.283935546875" class="er attributeBoxEven"></rect><text style="dominant-baseline: middle; font-size: 10.2px;" transform="translate(127.283935546875,63.015625)" y="0" x="0" id="text-entity-Cliente-62dfbbba-61a0-5712-b194-5fd14f3a1db7-attr-2-key" class="er entityLabel"></text><rect height="24" width="69.359375" y="75.015625" x="0" class="er attributeBoxOdd"></rect><text style="dominant-baseline: middle; font-size: 10.2px;" transform="translate(5,87.015625)" y="0" x="0" id="text-entity-Cliente-62dfbbba-61a0-5712-b194-5fd14f3a1db7-attr-3-type" class="er entityLabel">varchar(255)</text><rect height="24" width="52.924560546875" y="75.015625" x="69.359375" class="er attributeBoxOdd"></rect><text style="dominant-baseline: middle; font-size: 10.2px;" transform="translate(74.359375,87.015625)" y="0" x="0" id="text-entity-Cliente-62dfbbba-61a0-5712-b194-5fd14f3a1db7-attr-3-name" class="er entityLabel">apellidos</text><rect height="24" width="24.426727294921875" y="75.015625" x="122.283935546875" class="er attributeBoxOdd"></rect><text style="dominant-baseline: middle; font-size: 10.2px;" transform="translate(127.283935546875,87.015625)" y="0" x="0" id="text-entity-Cliente-62dfbbba-61a0-5712-b194-5fd14f3a1db7-attr-3-key" class="er entityLabel"></text><rect height="24" width="69.359375" y="99.015625" x="0" class="er attributeBoxEven"></rect><text style="dominant-baseline: middle; font-size: 10.2px;" transform="translate(5,111.015625)" y="0" x="0" id="text-entity-Cliente-62dfbbba-61a0-5712-b194-5fd14f3a1db7-attr-4-type" class="er entityLabel">varchar(50)</text><rect height="24" width="52.924560546875" y="99.015625" x="69.359375" class="er attributeBoxEven"></rect><text style="dominant-baseline: middle; font-size: 10.2px;" transform="translate(74.359375,111.015625)" y="0" x="0" id="text-entity-Cliente-62dfbbba-61a0-5712-b194-5fd14f3a1db7-attr-4-name" class="er entityLabel">cedula</text><rect height="24" width="24.426727294921875" y="99.015625" x="122.283935546875" class="er attributeBoxEven"></rect><text style="dominant-baseline: middle; font-size: 10.2px;" transform="translate(127.283935546875,111.015625)" y="0" x="0" id="text-entity-Cliente-62dfbbba-61a0-5712-b194-5fd14f3a1db7-attr-4-key" class="er entityLabel">UK</text><rect height="24" width="69.359375" y="123.015625" x="0" class="er attributeBoxOdd"></rect><text style="dominant-baseline: middle; font-size: 10.2px;" transform="translate(5,135.015625)" y="0" x="0" id="text-entity-Cliente-62dfbbba-61a0-5712-b194-5fd14f3a1db7-attr-5-type" class="er entityLabel">varchar(255)</text><rect height="24" width="52.924560546875" y="123.015625" x="69.359375" class="er attributeBoxOdd"></rect><text style="dominant-baseline: middle; font-size: 10.2px;" transform="translate(74.359375,135.015625)" y="0" x="0" id="text-entity-Cliente-62dfbbba-61a0-5712-b194-5fd14f3a1db7-attr-5-name" class="er entityLabel">clave</text><rect height="24" width="24.426727294921875" y="123.015625" x="122.283935546875" class="er attributeBoxOdd"></rect><text style="dominant-baseline: middle; font-size: 10.2px;" transform="translate(127.283935546875,135.015625)" y="0" x="0" id="text-entity-Cliente-62dfbbba-61a0-5712-b194-5fd14f3a1db7-attr-5-key" class="er entityLabel"></text></g><g transform="translate(513.1047058105469,279.015625 )" id="entity-PrecioGenero-1749788e-369a-5465-bc7c-85fe5ef80e51"><rect height="75.015625" width="130.17529296875" y="0" x="0" class="er entityBox"></rect><text style="dominant-baseline: middle; text-anchor: middle; font-size: 12px;" transform="translate(65.087646484375,13.5078125)" y="0" x="0" id="text-entity-PrecioGenero-1749788e-369a-5465-bc7c-85fe5ef80e51" class="er entityLabel">PrecioGenero</text><rect height="24" width="63.53125" y="27.015625" x="0" class="er attributeBoxOdd"></rect><text style="dominant-baseline: middle; font-size: 10.2px;" transform="translate(5,39.015625)" y="0" x="0" id="text-entity-PrecioGenero-1749788e-369a-5465-bc7c-85fe5ef80e51-attr-1-type" class="er entityLabel">varchar(50)</text><rect height="24" width="43.515625" y="27.015625" x="63.53125" class="er attributeBoxOdd"></rect><text style="dominant-baseline: middle; font-size: 10.2px;" transform="translate(68.53125,39.015625)" y="0" x="0" id="text-entity-PrecioGenero-1749788e-369a-5465-bc7c-85fe5ef80e51-attr-1-name" class="er entityLabel">genero</text><rect height="24" width="23.12841796875" y="27.015625" x="107.046875" class="er attributeBoxOdd"></rect><text style="dominant-baseline: middle; font-size: 10.2px;" transform="translate(112.046875,39.015625)" y="0" x="0" id="text-entity-PrecioGenero-1749788e-369a-5465-bc7c-85fe5ef80e51-attr-1-key" class="er entityLabel">PK</text><rect height="24" width="63.53125" y="51.015625" x="0" class="er attributeBoxEven"></rect><text style="dominant-baseline: middle; font-size: 10.2px;" transform="translate(5,63.015625)" y="0" x="0" id="text-entity-PrecioGenero-1749788e-369a-5465-bc7c-85fe5ef80e51-attr-2-type" class="er entityLabel">int</text><rect height="24" width="43.515625" y="51.015625" x="63.53125" class="er attributeBoxEven"></rect><text style="dominant-baseline: middle; font-size: 10.2px;" transform="translate(68.53125,63.015625)" y="0" x="0" id="text-entity-PrecioGenero-1749788e-369a-5465-bc7c-85fe5ef80e51-attr-2-name" class="er entityLabel">precio</text><rect height="24" width="23.12841796875" y="51.015625" x="107.046875" class="er attributeBoxEven"></rect><text style="dominant-baseline: middle; font-size: 10.2px;" transform="translate(112.046875,63.015625)" y="0" x="0" id="text-entity-PrecioGenero-1749788e-369a-5465-bc7c-85fe5ef80e51-attr-2-key" class="er entityLabel"></text></g><rect height="17.015625" width="28.404296875" y="162.4927215576172" x="136.26596069335938" class="er relationshipLabelBox"></rect><text style="text-anchor: middle; dominant-baseline: middle; font-size: 12px;" y="171.0005340576172" x="150.46810913085938" id="rel1" class="er relationshipLabel">tiene</text><rect height="17.015625" width="84.484375" y="425.4683532714844" x="57.81126403808594" class="er relationshipLabelBox"></rect><text style="text-anchor: middle; dominant-baseline: middle; font-size: 12px;" y="433.9761657714844" x="100.05345153808594" id="rel2" class="er relationshipLabel">es alquilado en</text><rect height="17.015625" width="36.671875" y="436.8717041015625" x="311.1517639160156" class="er relationshipLabelBox"></rect><text style="text-anchor: middle; dominant-baseline: middle; font-size: 12px;" y="445.3795166015625" x="329.4877014160156" id="rel3" class="er relationshipLabel">realiza</text><rect height="17.015625" width="45.984375" y="165.88551330566406" x="502.0364990234375" class="er relationshipLabelBox"></rect><text style="text-anchor: middle; dominant-baseline: middle; font-size: 12px;" y="174.39332580566406" x="525.0286865234375" id="rel4" class="er relationshipLabel">tiene un</text></svg>